# xmcd
#
# Track frame offsets: 
#        150
#        11937
#        23862
#        38540
#        54075
#        65245
#        80407
#        92905
#        107120
#        115695
#        129345
#        152420
#        166157
#        181755
#        194237
#        207927
#        218630
#        230565
#        245577
#        256032
#        269192
#
# Disc length: 3754 seconds
#
# Revision: 2
# Processed by: cddbd v1.5.2PL0 Copyright (c) Steve Scherf et al.
# Submitted via: ExactAudioCopy v0.95b4
#
DISCID=220ea815
DTITLE=Billy Parker - billy parker and friends
DYEAR=1900
DGENRE=
TTITLE0=Something Old, Something New (& Jack Greene)
TTITLE1=Memory Number One (Webb Pierce)
TTITLE2=Too Many Irons in the Fire (Cal Smith)
TTITLE3=Who Said Love Was Fair (Jimmy Payne)
TTITLE4=I Believe I'm Entitled to You (Bill Carlisle)
TTITLE5=Milk Cow Blues (Johnnie Lee Willis)
TTITLE6=Tomorrow Never Comes (Ernest Tubb)
TTITLE7=When I Need Love Bad
TTITLE8=Honky Tonk Girl (Cal Smith)
TTITLE9=Love Don't Know a Lady (Darrell McCall)
TTITLE10=Take Me Back to Tulsa (Johnnie Lee Wills)
TTITLE11=Who's Gonna Sing the Last Country Song (Darrell McCall)
TTITLE12=It's Not Me
TTITLE13=If I Never Need a Lady
TTITLE14=I See an Angel Every Day
TTITLE15=i'll drink to that
TTITLE16=Why Do You Keep Calling You Honey, Honey
TTITLE17=Can I Have What's Left
TTITLE18=What's a Nice Girl Like You
TTITLE19=One More Last Time
TTITLE20=Hello Out There
EXTD=
EXTT0=
EXTT1=
EXTT2=
EXTT3=
EXTT4=
EXTT5=
EXTT6=
EXTT7=
EXTT8=
EXTT9=
EXTT10=
EXTT11=
EXTT12=
EXTT13=
EXTT14=
EXTT15=
EXTT16=
EXTT17=
EXTT18=
EXTT19=
EXTT20=
PLAYORDER=
